<svg width="28" height="28" viewBox="0 0 28 28" fill="none" xmlns="http://www.w3.org/2000/svg">
<g clip-path="url(#clip0_270_5160)">
<path d="M25.1456 4.6664C25.0396 4.65547 24.9327 4.65547 24.8267 4.6664H3.04894C2.90936 4.66855 2.77071 4.68948 2.63672 4.72862L13.8756 15.9208L25.1456 4.6664Z" fill="white"/>
<path d="M26.2956 5.74805L14.9711 17.0258C14.6797 17.3155 14.2854 17.4782 13.8744 17.4782C13.4635 17.4782 13.0692 17.3155 12.7778 17.0258L1.55444 5.8336C1.51994 5.96041 1.50165 6.09108 1.5 6.22249V21.778C1.5 22.1906 1.66389 22.5863 1.95561 22.878C2.24733 23.1697 2.643 23.3336 3.05556 23.3336H24.8333C25.2459 23.3336 25.6416 23.1697 25.9333 22.878C26.225 22.5863 26.3889 22.1906 26.3889 21.778V6.22249C26.3827 6.06045 26.3512 5.90036 26.2956 5.74805ZM4.12111 21.778H3.04V20.6658L8.69444 15.058L9.79111 16.1547L4.12111 21.778ZM24.8178 21.778H23.7289L18.0589 16.1547L19.1556 15.058L24.81 20.6658L24.8178 21.778Z" fill="white"/>
</g>
<defs>
<clipPath id="clip0_270_5160">
<rect width="28" height="28" fill="white"/>
</clipPath>
</defs>
</svg>
