<svg width="14" height="14" viewBox="0 0 14 14" fill="none" xmlns="http://www.w3.org/2000/svg">
<g clip-path="url(#clip0_347_2359)">
<path d="M5.66417 8.16667H7V8.75H5.41917L4.83583 8.16667H0.583333V9.04167C0.583333 9.52583 0.974167 9.91667 1.45833 9.91667H7V10.5H1.45833C0.653333 10.5 0 9.84667 0 9.04167V7.58333H1.16667V0H12.8333V4.08333H12.25V0.583333H1.75V7.58333H5.08083L5.66417 8.16667ZM14 6.70833V14H8.16667V6.70833C8.16667 5.90333 8.82 5.25 9.625 5.25H12.5417C13.3467 5.25 14 5.90333 14 6.70833ZM13.4167 6.70833C13.4167 6.22417 13.0258 5.83333 12.5417 5.83333H9.625C9.14083 5.83333 8.75 6.22417 8.75 6.70833V13.4167H13.4167V6.70833Z" fill="#323232"/>
</g>
<defs>
<clipPath id="clip0_347_2359">
<rect width="14" height="14" fill="white"/>
</clipPath>
</defs>
</svg>
