<svg width="1920" height="158" viewBox="0 0 1920 158" fill="none" xmlns="http://www.w3.org/2000/svg">
<path d="M118.245 4.27027H136.355L68.1773 158L0 4.27027H18.1096L68.1773 117.219L118.245 4.27027Z" fill="#ECEFF3"/>
<path d="M175.061 123.197C185.997 134.3 200.698 139.851 219.163 139.851C237.627 139.851 252.328 134.3 263.265 123.197C274.344 112.095 279.883 97.3622 279.883 79C279.883 60.6378 274.344 45.9054 263.265 34.8027C252.328 23.7 237.627 18.1486 219.163 18.1486C200.698 18.1486 185.997 23.7 175.061 34.8027C163.982 45.9054 158.442 60.6378 158.442 79C158.442 97.3622 163.982 112.095 175.061 123.197ZM162.703 23.0595C176.765 9.10991 195.585 2.13513 219.163 2.13513C242.741 2.13513 261.56 9.10991 275.622 23.0595C289.826 37.009 296.927 55.6559 296.927 79C296.927 102.344 289.826 120.991 275.622 134.941C261.56 148.89 242.741 155.865 219.163 155.865C195.585 155.865 176.765 148.89 162.703 134.941C148.5 120.991 141.398 102.344 141.398 79C141.398 55.6559 148.5 37.009 162.703 23.0595Z" fill="#ECEFF3"/>
<path d="M322.402 4.27027H339.447V137.716H420.407V153.73H322.402V4.27027Z" fill="#ECEFF3"/>
<path d="M441.621 153.73V4.27027H458.665V153.73H441.621ZM538.348 4.27027H558.801L494.885 79L558.801 153.73H538.348L474.431 79L538.348 4.27027Z" fill="#ECEFF3"/>
<path d="M590.349 123.197C601.286 134.3 615.987 139.851 634.452 139.851C652.916 139.851 667.617 134.3 678.554 123.197C689.633 112.095 695.172 97.3622 695.172 79C695.172 60.6378 689.633 45.9054 678.554 34.8027C667.617 23.7 652.916 18.1486 634.452 18.1486C615.987 18.1486 601.286 23.7 590.349 34.8027C579.271 45.9054 573.731 60.6378 573.731 79C573.731 97.3622 579.271 112.095 590.349 123.197ZM577.992 23.0595C592.054 9.10991 610.874 2.13513 634.452 2.13513C658.03 2.13513 676.849 9.10991 690.911 23.0595C705.115 37.009 712.216 55.6559 712.216 79C712.216 102.344 705.115 120.991 690.911 134.941C676.849 148.89 658.03 155.865 634.452 155.865C610.874 155.865 592.054 148.89 577.992 134.941C563.789 120.991 556.687 102.344 556.687 79C556.687 55.6559 563.789 37.009 577.992 23.0595Z" fill="#ECEFF3"/>
<path d="M835.43 4.27027H853.539L785.362 158L717.185 4.27027H735.294L785.362 117.219L835.43 4.27027Z" fill="#ECEFF3"/>
<path d="M1059.02 96.0811H1076.7C1073.29 114.586 1064.84 129.176 1051.35 139.851C1037.86 150.527 1020.88 155.865 1000.43 155.865C976.852 155.865 958.033 148.89 943.971 134.941C929.767 120.849 922.666 102.202 922.666 79C922.666 55.6559 929.767 37.009 943.971 23.0595C958.033 9.10991 976.852 2.13513 1000.43 2.13513C1020.88 2.13513 1037.86 7.47297 1051.35 18.1486C1064.84 28.8243 1073.29 43.4144 1076.7 61.9189H1059.02C1055.75 48.3964 1049.01 37.7207 1038.78 29.8919C1028.41 22.0631 1015.63 18.1486 1000.43 18.1486C981.966 18.1486 967.265 23.7 956.328 34.8027C945.249 45.9054 939.71 60.6378 939.71 79C939.71 97.3622 945.249 112.095 956.328 123.197C967.265 134.3 981.966 139.851 1000.43 139.851C1015.63 139.851 1028.41 135.937 1038.78 128.108C1049.01 120.279 1055.75 109.604 1059.02 96.0811Z" fill="#ECEFF3"/>
<path d="M1118.63 20.2838V80.0676H1167.64C1176.73 80.0676 1183.97 77.3631 1189.37 71.9541C1194.77 66.545 1197.46 59.2856 1197.46 50.1757C1197.46 41.0658 1194.77 33.8063 1189.37 28.3973C1183.97 22.9883 1176.73 20.2838 1167.64 20.2838H1118.63ZM1216.64 153.73H1197.04L1156.34 96.0811H1118.63V153.73H1101.59V4.27027H1167.64C1181.84 4.27027 1193.2 8.46937 1201.72 16.8676C1210.25 25.1234 1214.51 36.2261 1214.51 50.1757C1214.51 62.7018 1211.03 73.0216 1204.07 81.1351C1197.11 89.1063 1187.59 93.8748 1175.52 95.4406L1216.64 153.73Z" fill="#ECEFF3"/>
<path d="M1240.16 4.27027H1342.42V20.2838H1257.2V70.4595H1336.03V86.473H1257.2V137.716H1342.42V153.73H1240.16V4.27027Z" fill="#ECEFF3"/>
<path d="M1424.52 0L1492.7 153.73H1474.59L1458.4 117.432H1390.65L1374.46 153.73H1356.35L1424.52 0ZM1424.52 40.7811L1397.68 101.419H1451.37L1424.52 40.7811Z" fill="#ECEFF3"/>
<path d="M1478.92 4.27027H1602.49V20.2838H1549.23V153.73H1532.18V20.2838H1478.92V4.27027Z" fill="#ECEFF3"/>
<path d="M1623.82 153.73V4.27027H1640.87V153.73H1623.82Z" fill="#ECEFF3"/>
<path d="M1779.4 4.27027H1797.51L1729.33 158L1661.16 4.27027H1679.27L1729.33 117.219L1779.4 4.27027Z" fill="#ECEFF3"/>
<path d="M1817.73 4.27027H1920V20.2838H1834.78V70.4595H1913.61V86.473H1834.78V137.716H1920V153.73H1817.73V4.27027Z" fill="#ECEFF3"/>
</svg>
