<svg width="220" height="19" viewBox="0 0 220 19" fill="none" xmlns="http://www.w3.org/2000/svg">
<path d="M209.984 18.1086V0H220.002V1.64178H211.819V8.13538H219.729V9.77716H211.819V16.4668H220.002V18.1086H209.984Z" fill="#323232"/>
<path d="M198.658 18.1086L191.102 0H193.115L199.578 15.8542L206.066 0H208.054L200.448 18.1086H198.658Z" fill="#323232"/>
<path d="M187.25 18.1086V0H189.176V18.1086H187.25Z" fill="#323232"/>
<path d="M179.189 18.1086V1.64178H174.922V0H185.325V1.64178H181.058V18.1086H179.189Z" fill="#323232"/>
<path d="M156.812 18.1086L164.637 0H166.686L174.536 18.1086H172.536L169.895 12.007H161.404L158.738 18.1086H156.812ZM162.095 10.3653H169.179L165.674 2.05835L162.095 10.3653Z" fill="#323232"/>
<path d="M145.254 18.1086V0H155.271V1.64178H147.089V8.13538H154.999V9.77716H147.089V16.4668H155.271V18.1086H145.254Z" fill="#323232"/>
<path d="M130.227 18.1086V0H134.73C137.388 0 139.357 0.473747 140.636 1.42124C141.916 2.36874 142.556 3.83082 142.556 5.80749C142.556 7.4411 142.096 8.73165 141.178 9.67915C140.275 10.6103 138.946 11.1657 137.191 11.3454L142.285 18.1086H140.021L133.893 9.89968H134.41C136.51 9.89968 138.085 9.55663 139.135 8.87051C140.185 8.18439 140.71 7.15522 140.71 5.78298C140.71 4.32907 140.226 3.27539 139.258 2.62195C138.29 1.9685 136.74 1.64178 134.607 1.64178H132.048V18.1086H130.227Z" fill="#323232"/>
<path d="M90.7793 18.1086L83.2227 0H85.2361L91.699 15.8542L98.1868 0H100.175L92.569 18.1086H90.7793Z" fill="#323232"/>
<path d="M50.0859 18.1086V0H51.9344V10.4143L60.4774 0H62.8005L55.5065 8.8215L62.8005 18.1086H60.4774L54.3324 10.2672L51.9344 13.1587V18.1086H50.0859Z" fill="#323232"/>
<path d="M38.5273 18.1086V0H40.4031V16.4668H48.1596V18.1086H38.5273Z" fill="#323232"/>
<path d="M7.38489 18.1086L0 0H1.96769L8.28371 15.8542L14.624 0H16.5674L9.13395 18.1086H7.38489Z" fill="#323232"/>
<g clip-path="url(#clip0_357_233)">
<path d="M24.3117 0.320564C22.1224 0.833405 20.156 2.20569 18.9039 4.10497C17.9667 5.51971 17.7922 7.12784 17.7332 8.66523C17.6518 10.7838 18.3238 12.8387 19.6607 14.5717C19.9437 14.936 20.7572 15.7566 21.1144 16.0395C21.2559 16.1492 21.5423 16.3578 21.751 16.4958C24.7396 18.5153 28.7504 18.5259 31.7673 16.5241C32.8425 15.8061 33.7621 14.8653 34.4659 13.7583C34.6923 13.4046 35.1238 12.5168 35.2829 12.0818C35.4633 11.5902 35.672 10.7484 35.7463 10.2038C35.817 9.69798 35.8382 8.52022 35.7816 8.15239L35.7498 7.94018L35.6861 8.29386C35.2122 10.8545 33.5004 12.9731 31.1059 13.9493C30.204 14.3171 29.4719 14.4656 28.4392 14.4904C27.6434 14.5116 27.173 14.4656 26.501 14.3065C24.821 13.9068 23.3284 12.9413 22.2603 11.5654C20.8527 9.75457 20.0286 7.42959 20.6122 5.20139C21.1534 3.13234 22.5292 1.40637 24.4179 0.419596C24.6124 0.317026 24.7468 0.23568 24.7185 0.23568C24.6902 0.23568 24.5063 0.274586 24.3117 0.320564Z" fill="#323232"/>
<path fill-rule="evenodd" clip-rule="evenodd" d="M26.7769 17.7233C31.5647 17.7233 34.0974 14.8336 35.4459 9.05429C35.8312 3.66025 31.5647 0.192644 26.7769 0.192644C25.5661 0.192644 24.4652 0.385289 23.3664 1.08195C20.2165 3.07901 18.1079 5.47741 18.1079 9.05429C18.1079 13.842 21.9892 17.7233 26.7769 17.7233ZM26.7769 18.1086C31.7775 18.1086 35.8312 14.0548 35.8312 9.05429C35.8312 4.05374 31.7775 0 26.7769 0C21.7764 0 17.7227 4.05374 17.7227 9.05429C17.7227 14.0548 21.7764 18.1086 26.7769 18.1086Z" fill="#323232"/>
</g>
<g clip-path="url(#clip1_357_233)">
<path d="M70.5461 0.320564C68.3568 0.833405 66.3903 2.20569 65.1383 4.10497C64.201 5.51971 64.031 7.01267 63.9675 8.66523C63.8862 10.7838 64.5582 12.8387 65.8951 14.5717C66.1781 14.936 66.9915 15.7566 67.3488 16.0395C67.4902 16.1492 67.7767 16.3578 67.9854 16.4958C70.974 18.5153 74.9848 18.5259 78.0017 16.5241C79.0769 15.8061 79.9965 14.8653 80.7003 13.7583C80.9267 13.4046 81.3581 12.5168 81.5173 12.0818C81.6977 11.5902 81.9064 10.7484 81.9806 10.2038C82.0514 9.69798 82.0726 8.52022 82.016 8.15239L81.9842 7.94018L81.9205 8.29386C81.4466 10.8545 79.7347 12.9731 77.3403 13.9493C76.4384 14.3171 75.7063 14.4656 74.6735 14.4904C73.8777 14.5116 73.4073 14.4656 72.7353 14.3065C71.0554 13.9068 69.5628 12.9413 68.4947 11.5654C67.087 9.75457 66.263 7.42959 66.8466 5.20139C67.3877 3.13234 68.7636 1.40637 70.6522 0.419596C70.8468 0.317026 70.9812 0.23568 70.9529 0.23568C70.9246 0.23568 70.7406 0.274586 70.5461 0.320564Z" fill="#323232"/>
<path fill-rule="evenodd" clip-rule="evenodd" d="M73.0113 17.7233C77.7991 17.7233 80.3318 14.8336 81.6803 9.05429C82.0656 3.66025 77.7991 0.192644 73.0113 0.192644C71.8004 0.192644 70.6996 0.385289 69.6008 1.08195C66.4508 3.07901 64.3423 5.47741 64.3423 9.05429C64.3423 13.842 68.2236 17.7233 73.0113 17.7233ZM73.0113 18.1086C78.0119 18.1086 82.0656 14.0548 82.0656 9.05429C82.0656 4.05374 78.0119 0 73.0113 0C68.0108 0 63.957 4.05374 63.957 9.05429C63.957 14.0548 68.0108 18.1086 73.0113 18.1086Z" fill="#323232"/>
</g>
<g clip-path="url(#clip2_357_233)">
<path d="M116.011 0.320564C113.822 0.833405 111.855 2.20569 110.603 4.10497C109.666 5.51971 109.496 7.01267 109.432 8.66523C109.351 10.7838 110.023 12.8387 111.36 14.5717C111.643 14.936 112.456 15.7566 112.814 16.0395C112.955 16.1492 113.242 16.3578 113.45 16.4958C116.439 18.5153 120.45 18.5259 123.467 16.5241C124.542 15.8061 125.461 14.8653 126.165 13.7583C126.391 13.4046 126.823 12.5168 126.982 12.0818C127.163 11.5902 127.371 10.7484 127.445 10.2038C127.516 9.69798 127.537 8.52022 127.481 8.15239L127.449 7.94018L127.385 8.29386C126.911 10.8545 125.2 12.9731 122.805 13.9493C121.903 14.3171 121.171 14.4656 120.138 14.4904C119.343 14.5116 118.872 14.4656 118.2 14.3065C116.52 13.9068 115.028 12.9413 113.96 11.5654C112.552 9.75457 111.728 7.42959 112.311 5.20139C112.853 3.13234 114.228 1.40637 116.117 0.419596C116.312 0.317026 116.446 0.23568 116.418 0.23568C116.389 0.23568 116.205 0.274586 116.011 0.320564Z" fill="#323232"/>
</g>
<defs>
<clipPath id="clip0_357_233">
<rect width="18.1086" height="18.1086" fill="white" transform="translate(17.7227)"/>
</clipPath>
<clipPath id="clip1_357_233">
<rect width="18.1086" height="18.1086" fill="white" transform="translate(63.957)"/>
</clipPath>
<clipPath id="clip2_357_233">
<rect width="18.1086" height="18.1086" fill="white" transform="translate(109.422)"/>
</clipPath>
</defs>
</svg>
