<svg width="24" height="24" viewBox="0 0 24 24" fill="none" xmlns="http://www.w3.org/2000/svg">
<path fill-rule="evenodd" clip-rule="evenodd" d="M17.4111 14.382C17.1131 14.233 15.6521 13.515 15.3801 13.415C15.1081 13.315 14.9101 13.267 14.7111 13.565C14.5131 13.862 13.9441 14.531 13.7711 14.729C13.5971 14.928 13.4241 14.952 13.1271 14.804C12.8301 14.654 11.8721 14.341 10.7371 13.329C9.85409 12.541 9.25709 11.568 9.08409 11.27C8.91109 10.973 9.06509 10.812 9.21409 10.664C9.34809 10.531 9.51109 10.317 9.66009 10.144C9.80909 9.97103 9.85809 9.84603 9.95709 9.64703C10.0571 9.44903 10.0071 9.27603 9.93209 9.12703C9.85809 8.97803 9.26409 7.51503 9.01609 6.92003C8.77509 6.34103 8.53009 6.42003 8.34809 6.41003C8.17409 6.40203 7.97609 6.40003 7.77809 6.40003C7.58009 6.40003 7.25809 6.47403 6.98609 6.77203C6.71309 7.06903 5.94609 7.78803 5.94609 9.25103C5.94609 10.713 7.01009 12.126 7.15909 12.325C7.30809 12.524 9.25409 15.525 12.2351 16.812C12.9451 17.118 13.4981 17.301 13.9291 17.437C14.6411 17.664 15.2891 17.632 15.8011 17.555C16.3711 17.47 17.5591 16.836 17.8071 16.142C18.0551 15.448 18.0541 14.853 17.9801 14.729C17.9061 14.605 17.7081 14.531 17.4101 14.382M11.9881 21.785H11.9841C10.2135 21.7854 8.47547 21.3094 6.95209 20.407L6.59209 20.193L2.85009 21.175L3.84909 17.527L3.61409 17.153C2.62418 15.5774 2.10033 13.7538 2.10309 11.893C2.10509 6.44303 6.53909 2.00903 11.9921 2.00903C13.2909 2.00509 14.5775 2.25934 15.7771 2.75702C16.9768 3.2547 18.0655 3.98587 18.9801 4.90803C19.9006 5.82433 20.6301 6.91412 21.1266 8.11431C21.623 9.3145 21.8764 10.6012 21.8721 11.9C21.8701 17.35 17.4361 21.785 11.9881 21.785ZM20.4001 3.48803C19.2982 2.3793 17.9874 1.50013 16.5435 0.901413C15.0996 0.302696 13.5512 -0.0036753 11.9881 3.32698e-05C5.43409 3.32698e-05 0.0980937 5.33503 0.0960938 11.892C0.0928678 13.9788 0.640292 16.0295 1.68309 17.837L-0.00390625 24L6.30009 22.346C8.04426 23.2954 9.99829 23.7932 11.9841 23.794H11.9891C18.5431 23.794 23.8791 18.459 23.8811 11.901C23.886 10.3383 23.5809 8.79011 22.9836 7.34603C22.3863 5.90196 21.5085 4.59067 20.4011 3.48803" fill="#323232"/>
</svg>
