<svg width="28" height="28" viewBox="0 0 28 28" fill="none" xmlns="http://www.w3.org/2000/svg">
<path d="M14.0026 2.33398C20.4461 2.33398 25.6693 7.55715 25.6693 14.0007C25.6693 20.4442 20.4461 25.6673 14.0026 25.6673C11.9408 25.6709 9.9153 25.1252 8.13429 24.0865L2.34062 25.6673L3.91796 19.8713C2.87841 18.0897 2.33234 16.0633 2.33596 14.0007C2.33596 7.55715 7.55912 2.33398 14.0026 2.33398ZM10.0266 8.51732L9.79329 8.52665C9.64243 8.53705 9.49503 8.57667 9.35929 8.64332C9.23279 8.71508 9.11728 8.80466 9.01629 8.90932C8.87629 9.04115 8.79696 9.15548 8.71179 9.26632C8.28026 9.82737 8.04792 10.5162 8.05146 11.224C8.05379 11.7957 8.20312 12.3522 8.43646 12.8725C8.91362 13.9248 9.69879 15.039 10.7348 16.0715C10.9845 16.32 11.2295 16.5697 11.4931 16.8018C12.7805 17.9351 14.3144 18.7524 15.9731 19.1888L16.6358 19.2903C16.8516 19.302 17.0675 19.2857 17.2845 19.2752C17.6242 19.2572 17.9559 19.1653 18.2563 19.0057C18.4089 18.9267 18.558 18.8411 18.7031 18.749C18.7031 18.749 18.7525 18.7155 18.849 18.644C19.0065 18.5273 19.1033 18.4445 19.234 18.308C19.332 18.2069 19.4136 18.0894 19.479 17.9557C19.57 17.7655 19.661 17.4026 19.6983 17.1005C19.7263 16.8695 19.7181 16.7435 19.7146 16.6653C19.71 16.5405 19.6061 16.411 19.493 16.3562L18.814 16.0517C18.814 16.0517 17.799 15.6095 17.1783 15.3272C17.1133 15.2989 17.0437 15.2827 16.973 15.2793C16.8931 15.271 16.8124 15.2799 16.7363 15.3054C16.6603 15.331 16.5905 15.3726 16.532 15.4275C16.5261 15.4251 16.448 15.4917 15.6045 16.5137C15.556 16.5787 15.4894 16.6279 15.4129 16.6549C15.3364 16.6819 15.2537 16.6855 15.1751 16.6653C15.0991 16.6451 15.0246 16.6193 14.9523 16.5883C14.8076 16.5277 14.7575 16.5043 14.6583 16.4623C13.9885 16.1705 13.3685 15.7757 12.8208 15.2922C12.6738 15.1638 12.5373 15.0238 12.3973 14.8885C11.9383 14.4489 11.5383 13.9516 11.2073 13.4092L11.1385 13.2983C11.0898 13.2234 11.0498 13.1432 11.0195 13.0592C10.9751 12.8877 11.0906 12.75 11.0906 12.75C11.0906 12.75 11.3741 12.4397 11.506 12.2717C11.6343 12.1083 11.7428 11.9497 11.8128 11.8365C11.9505 11.6148 11.9936 11.3873 11.9213 11.2112C11.5946 10.4132 11.2571 9.61943 10.9086 8.82998C10.8398 8.67365 10.6356 8.56165 10.4501 8.53948C10.3871 8.53171 10.3241 8.52548 10.2611 8.52082C10.1045 8.51183 9.9474 8.51339 9.79096 8.52548L10.0266 8.51732Z" fill="white"/>
</svg>
