<svg width="14" height="14" viewBox="0 0 14 14" fill="none" xmlns="http://www.w3.org/2000/svg">
<path d="M14 9.0407C14 9.20404 13.8717 9.33237 13.7083 9.33237H9.625C9.14083 9.33237 8.75 9.72321 8.75 10.2074C8.75 10.6915 9.14083 11.0824 9.625 11.0824H11.375C12.18 11.0824 12.8333 11.7357 12.8333 12.5407C12.8333 13.3457 12.18 13.999 11.375 13.999H0.291667C0.128333 13.999 0 13.8707 0 13.7074C0 13.544 0.128333 13.4157 0.291667 13.4157H11.375C11.8592 13.4157 12.25 13.0249 12.25 12.5407C12.25 12.0565 11.8592 11.6657 11.375 11.6657H9.625C8.82 11.6657 8.16667 11.0124 8.16667 10.2074C8.16667 9.40237 8.82 8.74904 9.625 8.74904H13.7083C13.8717 8.74904 14 8.87737 14 9.0407ZM0.0875 11.5782C0.0175 11.5082 -0.0116667 11.4032 0.0116667 11.304L1.015 7.02237C1.19 6.26987 1.76167 5.65737 2.5025 5.42404L4.80083 4.7007L9.05333 0.448203C9.64833 -0.146797 10.6225 -0.146797 11.2175 0.448203C11.8125 1.0432 11.8125 2.01737 11.2175 2.61237L6.965 6.86487L6.24167 9.1632C6.00833 9.90404 5.39583 10.4699 4.64333 10.6507L0.361667 11.654C0.361667 11.654 0.315 11.6599 0.2975 11.6599C0.221667 11.6599 0.145833 11.6307 0.0933333 11.5724L0.0875 11.5782ZM5.33167 4.99237L6.67333 6.33404L10.8092 2.1982C11.1767 1.8307 11.1767 1.22404 10.8092 0.856537C10.4417 0.489037 9.835 0.489037 9.4675 0.856537L5.33167 4.99237ZM0.810833 10.4465L3.00417 8.2532C3.12083 8.13654 3.30167 8.13654 3.41833 8.2532C3.535 8.36987 3.535 8.5507 3.41833 8.66737L1.225 10.8607L4.515 10.0907C5.06917 9.96237 5.51833 9.54237 5.69333 8.99987L6.37 6.8532L4.82417 5.30737L2.6775 5.98404C2.135 6.1532 1.715 6.6082 1.58667 7.16237L0.816667 10.4524L0.810833 10.4465Z" fill="#323232"/>
</svg>
