<svg width="14" height="14" viewBox="0 0 14 14" fill="none" xmlns="http://www.w3.org/2000/svg">
<g clip-path="url(#clip0_347_2363)">
<path d="M13.0377 1.77916L11.3111 0.0524902L7.9044 3.45916L9.9344 5.48916C9.03607 7.61249 7.54273 9.10582 5.4894 9.93999L3.4594 7.90999L0.0527344 11.3108L1.7794 13.0375C2.39773 13.6558 3.23773 14 4.1419 14C8.47023 14 13.9944 8.47582 13.9944 4.14749C13.9944 3.24332 13.6502 2.40332 13.0319 1.77916H13.0377ZM4.14773 13.4167C3.39523 13.4167 2.7069 13.1367 2.19357 12.6233L0.881068 11.3108L3.4594 8.73249L5.34357 10.6167L5.51857 10.5467C7.87523 9.64832 9.5669 7.95666 10.5411 5.52416L10.6111 5.34332L8.72107 3.45332L11.3111 0.880824L12.6236 2.19332C13.1369 2.70082 13.4169 3.39499 13.4169 4.14749C13.4169 8.13166 8.1319 13.4167 4.14773 13.4167Z" fill="#323232"/>
</g>
<defs>
<clipPath id="clip0_347_2363">
<rect width="14" height="14" fill="white"/>
</clipPath>
</defs>
</svg>
