<?xml version="1.0" encoding="utf-8"?><svg viewBox="0 0 502.66 502.66" xmlns="http://www.w3.org/2000/svg" xmlns:xlink="http://www.w3.org/1999/xlink"><style>:root>svg{display:none}:root>svg:target{display:block}</style><svg viewBox="0 0 11 10" id="arr-top-right" xmlns="http://www.w3.org/2000/svg"><path d="m.575 9.27 7.953-7.953L1.693 1.3 1.632.38l8.462.023.023 8.462-.918-.061-.018-6.835-7.953 7.953-.653-.653Z"/></svg><svg viewBox="0 0 502.664 502.664" xml:space="preserve" id="icon" xmlns="http://www.w3.org/2000/svg"><path d="M153.821 358.226 0 274.337v-46.463l153.821-83.414v54.574L46.636 250.523l107.185 53.431v54.272zm26.273 29.358L282.103 115.08h32.227L212.084 387.584h-31.99zm168.749-29.358v-54.272l107.164-52.999-107.164-52.59v-53.927l153.821 83.522v46.183l-153.821 84.083z"/></svg><svg viewBox="0 0 220 19" id="logo" xmlns="http://www.w3.org/2000/svg"><path d="M209.984 18.109V0h10.018v1.642h-8.183v6.493h7.91v1.642h-7.91v6.69h8.183v1.642h-10.018Zm-11.326 0L191.102 0h2.013l6.463 15.854L206.066 0h1.988l-7.606 18.109h-1.79Zm-11.408 0V0h1.926v18.109h-1.926Zm-8.061 0V1.642h-4.267V0h10.403v1.642h-4.267v16.467h-1.869Zm-22.377 0L164.637 0h2.049l7.85 18.109h-2l-2.641-6.102h-8.491l-2.666 6.102h-1.926Zm5.283-7.744h7.084l-3.505-8.307-3.579 8.307Zm-16.841 7.744V0h10.017v1.642h-8.182v6.493h7.91v1.642h-7.91v6.69h8.182v1.642h-10.017Zm-15.027 0V0h4.503c2.658 0 4.627.474 5.906 1.421 1.28.948 1.92 2.41 1.92 4.386 0 1.634-.46 2.925-1.378 3.872-.903.931-2.232 1.487-3.987 1.666l5.094 6.764h-2.264l-6.128-8.21h.517c2.1 0 3.675-.342 4.725-1.028 1.05-.687 1.575-1.716 1.575-3.088 0-1.454-.484-2.508-1.452-3.161s-2.518-.98-4.651-.98h-2.559v16.467h-1.821Zm-39.447 0L83.222 0h2.013L91.7 15.854 98.187 0h1.988l-7.606 18.109h-1.79Zm-40.694 0V0h1.848v10.414L60.477 0h2.324l-7.294 8.822 7.294 9.287h-2.324l-6.145-7.842-2.398 2.892v4.95h-1.848Zm-11.559 0V0h1.876v16.467h7.757v1.642h-9.633Zm-31.142 0L0 0h1.968l6.316 15.854L14.624 0h1.943L9.134 18.109h-1.75Z"/><g clip-path="url(#ca)"><path d="M24.312.32a8.992 8.992 0 0 0-5.408 3.785c-.937 1.415-1.112 3.023-1.17 4.56-.082 2.119.59 4.174 1.927 5.907.283.364 1.096 1.185 1.453 1.468.142.11.428.318.637.456 2.989 2.02 7 2.03 10.016.028a9.361 9.361 0 0 0 2.699-2.766c.226-.353.658-1.241.817-1.676a10.8 10.8 0 0 0 .463-1.878c.071-.506.092-1.684.036-2.052l-.032-.212-.064.354c-.474 2.56-2.186 4.68-4.58 5.655-.902.368-1.634.517-2.667.541-.796.022-1.266-.024-1.938-.184a7.594 7.594 0 0 1-4.24-2.74c-1.409-1.812-2.233-4.136-1.65-6.366A7.527 7.527 0 0 1 24.418.42c.194-.103.329-.184.3-.184a4.71 4.71 0 0 0-.406.085Z"/><path fill-rule="evenodd" clip-rule="evenodd" d="M26.777 17.723c4.788 0 7.32-2.89 8.669-8.669.385-5.394-3.881-8.861-8.67-8.861-1.21 0-2.31.192-3.41.889-3.15 1.997-5.258 4.395-5.258 7.972a8.67 8.67 0 0 0 8.669 8.67Zm0 .386a9.054 9.054 0 1 0 0-18.109 9.054 9.054 0 0 0 0 18.109Z"/></g><g clip-path="url(#cb)"><path d="M70.546.32a8.992 8.992 0 0 0-5.408 3.785c-.937 1.415-1.107 2.908-1.17 4.56-.082 2.119.59 4.174 1.927 5.907.283.364 1.097 1.185 1.454 1.468.141.11.428.318.636.456 2.989 2.02 7 2.03 10.017.028a9.361 9.361 0 0 0 2.698-2.766c.227-.353.658-1.241.817-1.676.18-.492.39-1.334.464-1.878.07-.506.092-1.684.035-2.052l-.032-.212-.063.354c-.474 2.56-2.186 4.68-4.58 5.655-.903.368-1.635.517-2.667.541-.796.022-1.267-.024-1.939-.184a7.594 7.594 0 0 1-4.24-2.74C67.087 9.754 66.263 7.43 66.847 5.2A7.527 7.527 0 0 1 70.652.42c.195-.103.33-.184.3-.184a4.88 4.88 0 0 0-.406.085Z"/><path fill-rule="evenodd" clip-rule="evenodd" d="M73.011 17.723c4.788 0 7.32-2.89 8.67-8.669.385-5.394-3.882-8.861-8.67-8.861-1.21 0-2.311.192-3.41.889-3.15 1.997-5.259 4.395-5.259 7.972a8.67 8.67 0 0 0 8.67 8.67Zm0 .386a9.054 9.054 0 1 0 0-18.109 9.054 9.054 0 0 0 0 18.109Z"/></g><g clip-path="url(#cc)"><path d="M116.011.32a8.993 8.993 0 0 0-5.408 3.785c-.937 1.415-1.107 2.908-1.171 4.56-.081 2.119.591 4.174 1.928 5.907.283.364 1.096 1.185 1.454 1.468.141.11.428.318.636.456 2.989 2.02 7 2.03 10.017.028a9.364 9.364 0 0 0 2.698-2.766c.226-.353.658-1.241.817-1.676a10.74 10.74 0 0 0 .463-1.878c.071-.506.092-1.684.036-2.052l-.032-.212-.064.354c-.474 2.56-2.185 4.68-4.58 5.655-.902.368-1.634.517-2.667.541-.795.022-1.266-.024-1.938-.184a7.591 7.591 0 0 1-4.24-2.74c-1.408-1.811-2.232-4.136-1.649-6.365A7.53 7.53 0 0 1 116.117.42c.195-.103.329-.184.301-.184-.029 0-.213.039-.407.085Z"/></g><defs><clipPath id="ca"><path transform="translate(17.723)" d="M0 0h18.109v18.109H0z"/></clipPath><clipPath id="cb"><path transform="translate(63.957)" d="M0 0h18.109v18.109H0z"/></clipPath><clipPath id="cc"><path transform="translate(109.422)" d="M0 0h18.109v18.109H0z"/></clipPath></defs></svg><svg viewBox="0 0 28 28" id="mail-fill" xmlns="http://www.w3.org/2000/svg"><g clip-path="url(#da)"><path d="M25.146 4.666a1.555 1.555 0 0 0-.32 0H3.05c-.14.003-.278.023-.412.063L13.876 15.92l11.27-11.255Z"/><path d="M26.296 5.748 14.97 17.026a1.556 1.556 0 0 1-2.193 0L1.554 5.834a1.556 1.556 0 0 0-.054.388v15.556a1.556 1.556 0 0 0 1.556 1.556h21.777a1.556 1.556 0 0 0 1.556-1.556V6.222a1.557 1.557 0 0 0-.093-.474ZM4.12 21.778H3.04v-1.112l5.654-5.608 1.097 1.097-5.67 5.623Zm20.697 0h-1.09l-5.67-5.623 1.098-1.097 5.654 5.608.008 1.112Z"/></g><defs><clipPath id="da"><path d="M0 0h28v28H0z"/></clipPath></defs></svg><svg viewBox="0 0 21 24" id="tg" xmlns="http://www.w3.org/2000/svg"><g clip-path="url(#fa)"><path d="m20.934 4.623-3.168 14.943c-.24 1.055-.863 1.318-1.749.82L11.19 16.83l-2.33 2.24c-.257.258-.473.474-.97.474l.347-4.917 8.948-8.086c.39-.347-.084-.54-.604-.192L5.517 13.313l-4.762-1.49C-.281 11.499-.3 10.787.97 10.29L19.6 3.113c.862-.323 1.617.192 1.335 1.51Z"/></g><defs><clipPath id="fa"><path transform="translate(-.004)" d="M0 0h21v24H0z"/></clipPath></defs></svg><svg viewBox="0 0 28 28" id="tg-fill" xmlns="http://www.w3.org/2000/svg"><path d="M24.107 4.336 3.422 12.312c-1.411.567-1.403 1.355-.259 1.706l5.311 1.657 12.287-7.753c.581-.353 1.112-.163.676.224l-9.955 8.985h-.003.003l-.367 5.475c.537 0 .774-.246 1.075-.537l2.58-2.508 5.365 3.963c.99.545 1.7.265 1.946-.916l3.522-16.6c.36-1.445-.552-2.1-1.496-1.672Z"/></svg><svg viewBox="0 0 24 24" id="whatsapp" xmlns="http://www.w3.org/2000/svg"><path fill-rule="evenodd" clip-rule="evenodd" d="M17.411 14.382c-.298-.149-1.759-.867-2.03-.967-.273-.1-.47-.148-.67.15-.198.297-.767.966-.94 1.164-.174.199-.347.223-.644.075-.297-.15-1.255-.463-2.39-1.475-.883-.788-1.48-1.761-1.653-2.059-.173-.297-.019-.458.13-.606.134-.133.297-.347.446-.52.15-.173.198-.298.297-.497.1-.198.05-.371-.025-.52-.074-.149-.668-1.612-.916-2.207-.24-.579-.486-.5-.668-.51-.174-.008-.372-.01-.57-.01-.198 0-.52.074-.792.372-.273.297-1.04 1.016-1.04 2.479 0 1.462 1.064 2.875 1.213 3.074.15.199 2.095 3.2 5.076 4.487.71.306 1.263.489 1.694.625.712.227 1.36.195 1.872.118.57-.085 1.758-.719 2.006-1.413.248-.694.247-1.289.173-1.413-.074-.124-.272-.198-.57-.347m-5.422 7.403h-.004a9.869 9.869 0 0 1-5.032-1.378l-.36-.214-3.742.982 1-3.648-.236-.374a9.86 9.86 0 0 1-1.51-5.26c.001-5.45 4.435-9.884 9.888-9.884a9.8 9.8 0 0 1 6.988 2.899 9.821 9.821 0 0 1 2.892 6.992c-.002 5.45-4.436 9.885-9.884 9.885ZM20.4 3.488A11.82 11.82 0 0 0 11.988 0C5.434 0 .098 5.335.096 11.892a11.86 11.86 0 0 0 1.587 5.945L-.004 24 6.3 22.346a11.899 11.899 0 0 0 5.684 1.448h.005c6.554 0 11.89-5.335 11.892-11.893a11.82 11.82 0 0 0-3.48-8.413"/></svg><svg viewBox="0 0 28 28" id="whatsapp-fill" xmlns="http://www.w3.org/2000/svg"><path d="M14.003 2.334c6.443 0 11.666 5.223 11.666 11.667 0 6.443-5.223 11.666-11.666 11.666a11.608 11.608 0 0 1-5.869-1.58l-5.793 1.58 1.577-5.796a11.608 11.608 0 0 1-1.582-5.87c0-6.444 5.223-11.667 11.667-11.667Zm-3.976 6.183-.234.01c-.15.01-.298.05-.434.116a1.516 1.516 0 0 0-.343.266c-.14.132-.219.246-.304.357a3.185 3.185 0 0 0-.66 1.958c.002.572.151 1.128.384 1.649.478 1.052 1.263 2.166 2.299 3.199.25.248.495.498.758.73a11.026 11.026 0 0 0 4.48 2.387l.663.101c.216.012.431-.004.649-.015.34-.018.67-.11.971-.27.153-.078.302-.164.447-.256 0 0 .05-.034.146-.105.157-.117.254-.2.385-.336a1.36 1.36 0 0 0 .245-.352c.091-.19.182-.553.22-.855.027-.232.02-.357.016-.436-.005-.124-.109-.254-.222-.309l-.679-.304s-1.015-.442-1.636-.725a.585.585 0 0 0-.205-.048.562.562 0 0 0-.441.149c-.006-.003-.084.064-.928 1.086a.409.409 0 0 1-.429.151 1.625 1.625 0 0 1-.223-.077c-.144-.06-.194-.084-.294-.126a7.002 7.002 0 0 1-1.837-1.17c-.147-.128-.284-.268-.424-.403a7.35 7.35 0 0 1-1.19-1.48l-.069-.11a1.162 1.162 0 0 1-.118-.24c-.045-.171.07-.309.07-.309s.284-.31.416-.478c.128-.164.237-.322.307-.436.137-.221.18-.449.108-.625A95.356 95.356 0 0 0 10.91 8.83c-.07-.156-.273-.268-.459-.29a3.885 3.885 0 0 0-.189-.02 3.5 3.5 0 0 0-.47.005l.236-.008Z"/></svg></svg>